<svg width="22" height="22" viewBox="0 0 22 22"  fill="currentColor" xmlns="http://www.w3.org/2000/svg">
<path d="M11 21.1348C9.60677 21.1348 8.29492 20.8678 7.06445 20.334C5.83398 19.8066 4.75 19.0742 3.8125 18.1367C2.875 17.1992 2.13932 16.1185 1.60547 14.8945C1.07812 13.6641 0.814453 12.349 0.814453 10.9492C0.814453 9.55599 1.07812 8.2474 1.60547 7.02344C2.13932 5.79297 2.87174 4.70898 3.80273 3.77148C4.74023 2.83398 5.82422 2.10156 7.05469 1.57422C8.28516 1.04036 9.59701 0.773438 10.9902 0.773438C12.3835 0.773438 13.6953 1.04036 14.9258 1.57422C16.1628 2.10156 17.2467 2.83398 18.1777 3.77148C19.1152 4.70898 19.8509 5.79297 20.3848 7.02344C20.9186 8.2474 21.1855 9.55599 21.1855 10.9492C21.1855 12.349 20.9186 13.6641 20.3848 14.8945C19.8509 16.1185 19.1152 17.1992 18.1777 18.1367C17.2467 19.0742 16.166 19.8066 14.9355 20.334C13.7051 20.8678 12.3932 21.1348 11 21.1348ZM11 18.8984C12.1003 18.8984 13.1289 18.6934 14.0859 18.2832C15.0495 17.873 15.8958 17.3066 16.625 16.584C17.3542 15.8548 17.9238 15.0117 18.334 14.0547C18.7441 13.0911 18.9492 12.056 18.9492 10.9492C18.9492 9.84896 18.7409 8.82031 18.3242 7.86328C17.9141 6.89974 17.3444 6.05339 16.6152 5.32422C15.8926 4.59505 15.0495 4.02539 14.0859 3.61523C13.1289 3.20508 12.097 3 10.9902 3C9.88997 3 8.85807 3.20508 7.89453 3.61523C6.9375 4.02539 6.0944 4.59505 5.36523 5.32422C4.64258 6.05339 4.07617 6.89974 3.66602 7.86328C3.26237 8.82031 3.06055 9.84896 3.06055 10.9492C3.06055 12.056 3.26237 13.0911 3.66602 14.0547C4.07617 15.0117 4.64583 15.8548 5.375 16.584C6.10417 17.3066 6.94727 17.873 7.9043 18.2832C8.86784 18.6934 9.89974 18.8984 11 18.8984ZM6.48828 10.9492C6.48828 10.6562 6.57943 10.4186 6.76172 10.2363C6.94401 10.0475 7.18164 9.95312 7.47461 9.95312H10.0039V7.42383C10.0039 7.13737 10.0951 6.90299 10.2773 6.7207C10.4661 6.5319 10.7005 6.4375 10.9805 6.4375C11.2734 6.4375 11.5111 6.52865 11.6934 6.71094C11.8822 6.89323 11.9766 7.13086 11.9766 7.42383V9.95312H14.5156C14.8021 9.95312 15.0365 10.0475 15.2188 10.2363C15.401 10.4186 15.4922 10.6562 15.4922 10.9492C15.4922 11.2292 15.401 11.4635 15.2188 11.6523C15.0365 11.8346 14.8021 11.9258 14.5156 11.9258H11.9766V14.4648C11.9766 14.7513 11.8822 14.9857 11.6934 15.168C11.5111 15.3503 11.2734 15.4414 10.9805 15.4414C10.7005 15.4414 10.4661 15.3503 10.2773 15.168C10.0951 14.9857 10.0039 14.7513 10.0039 14.4648V11.9258H7.47461C7.18815 11.9258 6.95052 11.8346 6.76172 11.6523C6.57943 11.4635 6.48828 11.2292 6.48828 10.9492Z"/>
</svg>
