<svg width="72" height="30" viewBox="0 0 72 30" fill="none" xmlns="http://www.w3.org/2000/svg">
<g clip-path="url(#clip0_1_277)">
<path d="M9.48911 13.3842L7.33972 12.3885H23.633C24.3006 12.3885 24.9038 11.9983 25.166 11.3969L26.5391 8.24587L10.7146 8.24411C8.05161 8.24411 5.64423 9.79563 4.59073 12.1914L0.269866 22.1341C-0.665975 24.2882 0.947109 26.6792 3.33717 26.6792H17.4052C18.0729 26.6792 18.6761 26.2889 18.9383 25.6876L20.3369 22.4786H5.53016L9.48911 13.3848V13.3842Z" fill="#231F20"/>
<path d="M54.873 8.24469C52.1963 8.24469 49.7794 9.81258 48.7349 12.227L48.0373 13.84L47.5392 14.9896C46.6058 17.1432 48.2195 19.5312 50.6077 19.5312H51.8332H61.8366L60.552 22.4792H45.3844C44.7179 22.4792 44.1159 22.8677 43.8531 23.4674L42.4437 26.6798H59.5714C62.2421 26.6798 64.6548 25.1189 65.7029 22.7127L66.9583 19.8314C67.8971 17.6773 66.2834 15.2839 63.8927 15.2839H52.6746L53.4982 13.386L51.402 12.3897H69.0987C69.7675 12.3897 70.3714 11.9983 70.6329 11.3957L72 8.24527H54.8736L54.873 8.24469Z" fill="#231F20"/>
<path d="M49.8983 4.04351C49.8833 4.04351 49.8708 4.03123 49.8708 4.01661C49.872 3.9148 49.875 3.55442 49.8756 3.48656C49.8756 3.39295 49.8087 3.31748 49.7251 3.31748C49.6768 3.31748 49.6336 3.34323 49.6057 3.38301C49.5913 3.40291 49.42 3.64803 49.3143 3.79839C49.3083 3.80658 49.2993 3.81126 49.2891 3.81126H40.9388C40.906 3.81126 40.8792 3.78551 40.8785 3.75333L40.8619 3.5322C40.8612 3.49476 40.8958 3.4655 40.9334 3.47251L41.3604 3.5123C41.3975 3.51523 41.4309 3.49183 41.4399 3.45673L41.751 2.22055C41.7577 2.19188 41.7415 2.16262 41.7135 2.15268L41.4244 2.04679C41.4077 2.04035 41.3951 2.02689 41.3909 2.00992C41.3383 1.79464 40.9108 0.355438 38.8497 0.0336675C37.847 -0.122538 37.1902 0.296935 36.8396 0.631576C36.6837 0.780176 36.5553 0.953932 36.4549 1.14348L36.3319 1.40909C36.3212 1.42957 36.2733 1.67879 36.2733 1.70161L36.3385 2.92844C36.3385 2.97056 36.3588 3.00976 36.3923 3.0355L36.8444 3.2268L36.5947 3.63224C36.5863 3.66208 36.5588 3.68255 36.5272 3.68255C36.5272 3.68255 35.9957 3.696 35.7335 3.70653C35.242 3.72585 34.1473 4.3138 33.3405 6.00456C32.5479 7.66491 32.4178 7.94162 32.4178 7.94162C32.4011 7.97321 32.3669 7.99311 32.3305 7.99135L31.5942 7.9937C31.5488 7.9937 31.5005 8.02938 31.4813 8.06974L30.3364 11.2483C30.3174 11.2886 30.3287 11.3495 30.3585 11.3834L31.1576 11.8731C31.1797 11.8912 31.1893 11.9199 31.1826 11.9468L30.7653 13.1549C30.7599 13.1818 30.7497 13.2081 30.7353 13.2321L30.1817 13.7101C30.1674 13.7224 30.1542 13.7376 30.1465 13.7546C30.1423 13.7639 30.1388 13.7739 30.1357 13.7838L29.3737 15.6974C29.3636 15.7314 29.332 15.7542 29.2961 15.7542L28.8684 15.7565C28.7609 15.7565 28.6714 15.8379 28.6619 15.9426L28.4062 18.8029C28.4015 18.8532 28.3949 18.9035 28.3859 18.9538L28.1841 20.0888C28.1763 20.1151 28.1614 20.1385 28.1416 20.1579L27.4298 20.6908C27.1037 20.9962 26.6666 21.5536 26.4527 21.9427L24.0818 26.8471C24.0245 26.9512 23.9785 27.1309 23.9814 27.2497L24.1498 27.5439C24.1523 27.6492 24.1092 28.1138 24.0597 28.2073L23.2654 29.5682C23.2475 29.6015 23.2463 29.6408 23.2619 29.6751L23.3013 29.7635L23.4201 29.9958L25.831 29.9994C25.9804 30.0127 26.1457 29.825 26.1505 29.6238L26.2814 28.0032L26.2472 27.7592L30.8441 22.4692C30.9642 22.3259 31.1272 22.0732 31.2089 21.9059L33.3995 17.1694C33.4253 17.1174 33.4712 17.0776 33.5274 17.0594L33.6659 17.0156C33.7501 16.9886 33.8422 17.015 33.8989 17.0817C34.0906 17.3076 34.5415 18.058 34.7612 18.3711C34.9427 18.6309 35.8439 19.9091 36.2375 20.3305C36.3462 20.4462 36.6812 20.5779 36.8312 20.6674C36.8802 20.6967 36.8963 20.7586 36.8682 20.8073L35.5555 23.0677L34.9756 25.7373C34.9554 25.7994 34.9398 25.8636 34.9302 25.928L34.4053 27.782C34.4089 28.0161 34.2255 28.1389 34.2107 28.415L34.0195 29.77C34.0171 29.8115 34.0511 29.8467 34.0935 29.8467L37.3369 29.8642H37.3394C37.3436 29.8642 37.5681 29.8612 37.7006 29.8559C37.7258 29.8548 37.7688 29.8508 37.7969 29.8473C38.2292 29.7933 38.5249 29.7355 38.7261 29.6688C38.7351 29.6659 38.744 29.6629 38.753 29.6594C38.8928 29.6109 38.9835 29.557 39.0421 29.4974C39.1525 29.3844 39.2803 29.2458 39.2995 29.0674C39.3001 29.0603 39.3007 29.0539 39.3013 29.0468C39.3013 29.0427 39.3013 29.038 39.3018 29.0339C39.3018 29.0241 39.3018 29.0147 39.3018 29.0047C39.3018 29.0036 39.3018 29.0018 39.3018 29.0006C39.3018 28.9918 39.3007 28.983 39.2995 28.9748C39.2953 28.9392 39.287 28.9123 39.2774 28.8906C39.2774 28.8906 39.2774 28.8906 39.2774 28.8901C39.2774 28.8895 39.2768 28.8889 39.2762 28.8883C39.2732 28.8814 39.2697 28.8755 39.266 28.8695C39.2636 28.8661 39.2618 28.8626 39.2588 28.8591C39.2403 28.8339 39.2224 28.8245 39.2201 28.8233C39.2111 28.8182 39.2015 28.8135 39.1913 28.81L37.6852 28.3647C37.5885 28.3355 37.5043 28.277 37.4445 28.1974L37.0401 27.6112C37.0205 27.5703 37.0295 27.5211 37.0622 27.4895L37.8501 26.7283C37.8769 26.7032 37.8978 26.6723 37.9115 26.6383L40.3381 21.0283C40.4515 20.6721 40.4139 20.2714 40.3381 19.8477C40.2818 19.5347 39.4643 18.1897 39.2505 17.8182C39.0623 17.4906 37.8895 15.4798 37.6112 15.0036C37.5795 14.9498 37.5383 14.9018 37.4863 14.8667C37.4493 14.8416 37.4128 14.8094 37.383 14.7755C37.3532 14.7415 37.3317 14.7017 37.3196 14.6585L37.2271 13.262C37.2187 13.2315 37.2402 13.2011 37.2725 13.1988L37.6948 13.1643C37.7348 13.1608 37.7706 13.1379 37.7892 13.1034L39.2511 10.4105C39.2714 10.3736 39.2703 10.3286 39.2482 10.2929L38.9489 9.92959C38.9287 9.89624 38.928 9.85412 38.9477 9.82018L39.3956 9.34571C39.4141 9.31295 39.456 9.30183 39.4894 9.31997L40.6803 9.97814C40.7525 10.0179 40.8343 10.0413 40.9173 10.0413C41.2477 10.039 41.7917 9.84768 42.0747 9.67801C42.1494 9.63297 42.2108 9.5692 42.2515 9.49315L42.8357 8.15517C42.8434 8.1382 42.869 8.14055 42.8726 8.15868L43.0356 8.90285C43.0464 8.94965 43.0883 8.97597 43.136 8.96544L44.856 8.59044C44.9014 8.58048 44.9294 8.53661 44.9198 8.49215L44.5144 6.8125C44.509 6.78968 44.5131 6.7657 44.5263 6.7458L44.6936 6.49132C44.7145 6.45973 44.7299 6.42521 44.7395 6.38951L44.9421 5.4833C44.9473 5.45989 44.9683 5.44292 44.9927 5.44292L49.7508 5.44877C49.8177 5.44877 49.8696 5.39847 49.8696 5.33236V4.54021C49.8696 4.52559 49.8821 4.5133 49.8971 4.5133H51.7317C51.764 4.5133 51.7909 4.48756 51.7909 4.45538V4.09851C51.7909 4.06692 51.7646 4.04059 51.7317 4.04059H49.8965L49.8983 4.04351Z" fill="#231F20"/>
</g>
<defs>
<clipPath id="clip0_1_277">
<rect width="72" height="30" fill="white"/>
</clipPath>
</defs>
</svg>
