<svg width="20" height="22" viewBox="0 0 20 22"  fill="currentColor" xmlns="http://www.w3.org/2000/svg">
<path d="M4.33594 21.418C3.22266 21.418 2.36979 21.125 1.77734 20.5391C1.1849 19.9531 0.888672 19.1035 0.888672 17.9902V8.61523C0.888672 7.50846 1.1849 6.66211 1.77734 6.07617C2.36979 5.48372 3.22266 5.1875 4.33594 5.1875H6.98242V7.70703H4.60938C4.21875 7.70703 3.91927 7.80794 3.71094 8.00977C3.50911 8.20508 3.4082 8.51107 3.4082 8.92773V17.6875C3.4082 18.0977 3.50911 18.4004 3.71094 18.5957C3.91927 18.7975 4.21875 18.8984 4.60938 18.8984H15.3711C15.7617 18.8984 16.0612 18.7975 16.2695 18.5957C16.4779 18.4004 16.582 18.0977 16.582 17.6875V8.92773C16.582 8.51107 16.4779 8.20508 16.2695 8.00977C16.0612 7.80794 15.7617 7.70703 15.3711 7.70703H13.0078V5.1875H15.6543C16.7676 5.1875 17.6204 5.48372 18.2129 6.07617C18.8053 6.66211 19.1016 7.50846 19.1016 8.61523V17.9902C19.1016 19.097 18.8053 19.9434 18.2129 20.5293C17.6204 21.1217 16.7676 21.418 15.6543 21.418H4.33594ZM9.99023 15.2559C9.84049 15.2559 9.69076 15.2266 9.54102 15.168C9.39779 15.1094 9.2513 15.0085 9.10156 14.8652L5.85938 11.75C5.65755 11.5482 5.55664 11.3203 5.55664 11.0664C5.55664 10.7865 5.6543 10.5586 5.84961 10.3828C6.04492 10.207 6.27279 10.1191 6.5332 10.1191C6.82617 10.1191 7.07357 10.2266 7.27539 10.4414L8.44727 11.7012L9.02344 12.4531L8.86719 11.0176V1.19336C8.86719 0.88737 8.97461 0.623698 9.18945 0.402344C9.41081 0.18099 9.67773 0.0703125 9.99023 0.0703125C10.3092 0.0703125 10.5762 0.18099 10.791 0.402344C11.0124 0.623698 11.123 0.88737 11.123 1.19336V11.0176L10.9766 12.4531L11.5332 11.7012L12.7148 10.4414C12.9167 10.2266 13.1641 10.1191 13.457 10.1191C13.7109 10.1191 13.9355 10.207 14.1309 10.3828C14.3327 10.5586 14.4336 10.7865 14.4336 11.0664C14.4336 11.3203 14.3327 11.5482 14.1309 11.75L10.8887 14.8652C10.7389 15.0085 10.5892 15.1094 10.4395 15.168C10.2962 15.2266 10.1465 15.2559 9.99023 15.2559Z"/>
</svg>
