<svg width="24" height="24" viewBox="0 0 24 24" fill="none" xmlns="http://www.w3.org/2000/svg">
<path d="M13.0205 2.7655L20.3535 8.02875C20.7082 8.28333 20.9972 8.61871 21.1966 9.00714C21.3959 9.39558 21.4999 9.82589 21.5 10.2625V18.75C21.5 20.2688 20.2688 21.5 18.75 21.5H15V17.5C15 15.8433 13.6568 14.5 12 14.5C10.3433 14.5 9 15.8433 9 17.5V21.5H5.25C3.73125 21.5 2.5 20.2688 2.5 18.75V10.2628C2.50002 9.8261 2.60402 9.39573 2.80338 9.00726C3.00275 8.61878 3.29176 8.28336 3.6465 8.02875L10.9795 2.7655C11.2769 2.55199 11.6339 2.43715 12 2.43715C12.3661 2.43715 12.7231 2.55199 13.0205 2.7655Z" fill="#1B59F8"/>
</svg>
