<svg width="20" height="20" viewBox="0 0 20 20" fill="currentColor" xmlns="http://www.w3.org/2000/svg"><path d="M11.0205 0.765502L18.3535 6.02875C18.7082 6.28333 18.9972 6.61871 19.1966 7.00714C19.3959 7.39558 19.4999 7.82589 19.5 8.2625V16.75C19.5 18.2688 18.2688 19.5 16.75 19.5H13V15.5C13 13.8433 11.6568 12.5 10 12.5C8.34325 12.5 7 13.8433 7 15.5V19.5H3.25C1.73125 19.5 0.5 18.2688 0.5 16.75V8.26275C0.500019 7.8261 0.604015 7.39573 0.803384 7.00726C1.00275 6.61878 1.29176 6.28336 1.6465 6.02875L8.9795 0.765502C9.27694 0.55199 9.63386 0.437149 10 0.437149C10.3661 0.437149 10.7231 0.55199 11.0205 0.765502Z"/></svg>
