<svg width="1024" height="1024" viewBox="0 0 1024 1024" fill="none" xmlns="http://www.w3.org/2000/svg">
<path fill-rule="evenodd" clip-rule="evenodd" d="M316.44 1024C200.307 1024 133.538 1024 66.7688 957.231C0 890.462 0 823.693 0 707.56V316.44C0 200.307 0 133.538 66.7688 66.7688C133.538 0 200.307 0 316.44 0H707.56C823.693 0 890.462 0 957.231 66.7688C1024 133.538 1024 200.307 1024 316.44V707.56C1024 823.693 1024 890.462 957.231 957.231C890.462 1024 823.693 1024 707.56 1024H316.44Z" fill="white"/>
<path fill-rule="evenodd" clip-rule="evenodd" d="M229.25 448.832C244.891 458.159 262.258 462.822 281.351 462.822C300.446 462.822 317.813 458.159 333.453 448.832C349.094 439.506 361.586 427.035 370.93 411.424C380.274 395.608 384.946 378.171 384.946 359.112C384.946 340.053 380.274 322.717 370.93 307.105C361.586 291.493 349.094 279.023 333.453 269.696C317.813 260.369 300.446 255.706 281.351 255.706C262.258 255.706 244.891 260.369 229.25 269.696C213.609 279.023 201.117 291.493 191.773 307.105C182.43 322.717 177.758 340.053 177.758 359.112C177.758 378.171 182.43 395.608 191.773 411.424C201.117 427.035 213.609 439.506 229.25 448.832ZM689.938 448.832C705.782 458.159 723.25 462.822 742.344 462.822C761.234 462.822 778.5 458.159 794.141 448.832C809.984 439.506 822.578 427.035 831.922 411.424C841.266 395.608 845.938 378.171 845.938 359.112C845.938 340.053 841.266 322.717 831.922 307.105C822.578 291.493 809.984 279.023 794.141 269.696C778.5 260.369 761.234 255.706 742.344 255.706C723.25 255.706 705.782 260.369 689.938 269.696C674.297 279.023 661.805 291.493 652.461 307.105C643.32 322.717 638.75 340.053 638.75 359.112C638.75 378.171 643.32 395.608 652.461 411.424C661.805 427.035 674.297 439.506 689.938 448.832ZM459.898 787.335C475.539 796.662 492.906 801.325 512 801.325C531.094 801.325 548.461 796.662 564.102 787.335C579.742 778.211 592.234 765.741 601.578 749.926C610.922 734.314 615.594 716.978 615.594 697.919C615.594 678.86 610.922 661.524 601.578 645.912C592.234 630.299 579.742 617.83 564.102 608.504C548.461 599.177 531.094 594.513 512 594.513C492.906 594.513 475.539 599.177 459.898 608.504C444.258 617.83 431.766 630.299 422.422 645.912C413.078 661.524 408.406 678.86 408.406 697.919C408.406 716.978 413.078 734.314 422.422 749.926C431.766 765.741 444.258 778.211 459.898 787.335Z" fill="#1B59F8"/>
<path fill-rule="evenodd" clip-rule="evenodd" d="M416.328 378.273C421.61 383.342 427.805 385.876 434.914 385.876C442.43 385.876 448.726 383.342 453.805 378.273C458.883 373.203 461.422 367.019 461.422 359.721C461.422 352.421 458.883 346.237 453.805 341.168C448.726 335.897 442.43 333.261 434.914 333.261C427.805 333.261 421.61 335.897 416.328 341.168C411.25 346.237 408.711 352.421 408.711 359.721C408.711 367.019 411.25 373.203 416.328 378.273ZM493.11 378.273C498.39 383.342 504.687 385.876 512 385.876C519.11 385.876 525.305 383.342 530.586 378.273C535.867 373.203 538.508 367.019 538.508 359.721C538.508 352.421 535.867 346.237 530.586 341.168C525.305 335.897 519.11 333.261 512 333.261C504.687 333.261 498.39 335.897 493.11 341.168C488.031 346.237 485.492 352.421 485.492 359.721C485.492 367.019 488.031 373.203 493.11 378.273ZM569.89 378.273C575.172 383.342 581.367 385.876 588.477 385.876C595.789 385.876 601.984 383.342 607.062 378.273C612.344 373.203 614.984 367.019 614.984 359.721C614.984 352.421 612.344 346.237 607.062 341.168C601.984 335.897 595.789 333.261 588.477 333.261C581.367 333.261 575.172 335.897 569.89 341.168C564.61 346.237 561.969 352.421 561.969 359.721C561.969 367.019 564.61 373.203 569.89 378.273ZM644.539 517.871C649.82 523.143 656.016 525.779 663.125 525.779C670.438 525.779 676.633 523.143 681.711 517.871C686.992 512.599 689.633 506.415 689.633 499.319C689.633 492.019 686.992 485.835 681.711 480.767C676.633 475.495 670.438 472.859 663.125 472.859C656.016 472.859 649.82 475.495 644.539 480.767C639.258 485.835 636.617 492.019 636.617 499.319C636.617 506.415 639.258 512.599 644.539 517.871ZM586.953 581.131C592.234 586.403 598.43 589.039 605.539 589.039C612.851 589.039 619.047 586.403 624.125 581.131C629.406 575.86 632.047 569.675 632.047 562.579C632.047 555.279 629.406 549.095 624.125 544.026C619.047 538.755 612.851 536.119 605.539 536.119C598.43 536.119 592.234 538.755 586.953 544.026C581.875 549.095 579.336 555.279 579.336 562.579C579.336 569.675 581.875 575.86 586.953 581.131ZM398.961 581.131C404.242 586.403 410.539 589.039 417.851 589.039C425.164 589.039 431.359 586.403 436.438 581.131C441.718 575.86 444.359 569.675 444.359 562.579C444.359 555.279 441.718 549.095 436.438 544.026C431.359 538.755 425.164 536.119 417.851 536.119C410.539 536.119 404.242 538.755 398.961 544.026C393.883 549.095 391.344 555.279 391.344 562.579C391.344 569.675 393.883 575.86 398.961 581.131ZM341.68 517.871C346.961 523.143 353.156 525.779 360.266 525.779C367.578 525.779 373.774 523.143 378.851 517.871C384.133 512.599 386.774 506.415 386.774 499.319C386.774 492.019 384.133 485.835 378.851 480.767C373.774 475.495 367.578 472.859 360.266 472.859C353.156 472.859 346.961 475.495 341.68 480.767C336.602 485.835 334.062 492.019 334.062 499.319C334.062 506.415 336.602 512.599 341.68 517.871Z" fill="black" fill-opacity="0.7"/>
</svg>
