<svg width="152" height="82" viewBox="0 0 152 82" fill="none" xmlns="http://www.w3.org/2000/svg">
<path d="M56.3833 40.3839C56.3833 35.0892 60.4113 31.3399 65.4273 31.3399C69.2019 31.3399 72.4446 33.3159 73.7619 36.9385H69.4806C68.6446 35.3172 67.2513 34.6079 65.4273 34.6079C62.2353 34.6079 60.0059 36.8625 60.0059 40.3839C60.0059 43.9052 62.2353 46.1852 65.4273 46.1852C67.2513 46.1852 68.6446 45.4505 69.4806 43.8545H73.7619C72.4446 47.4519 69.2019 49.4279 65.4273 49.4279C60.4113 49.4279 56.3833 45.7039 56.3833 40.3839ZM78.8933 36.4065C78.8933 40.4852 87.9626 37.6732 87.9626 44.1332C87.9626 46.9199 85.5813 49.4532 81.6546 49.4532C77.88 49.4532 75.1946 47.6292 75.1946 44.2852H78.9946C79.1213 45.7799 80.008 46.6159 81.6546 46.6159C83.3013 46.6159 84.2893 45.6532 84.2893 44.3359C84.2893 40.3585 75.1946 43.0439 75.1946 36.6345C75.1946 33.3919 77.8293 31.3399 81.4266 31.3399C84.948 31.3399 87.4813 32.8852 87.684 36.4065H83.7826C83.656 35.0892 82.744 34.2025 81.3253 34.2025C79.9826 34.2025 78.8933 34.8612 78.8933 36.4065ZM93.6886 34.3292V39.4972H96.6272C98.4512 39.4972 99.3886 38.4585 99.3886 36.9132C99.3886 35.3679 98.4512 34.3292 96.6272 34.3292H93.6886ZM103.315 49.2759H99.0846L94.8539 42.2332H93.6886V49.2759H90.1166V31.5932H96.6272C100.909 31.5932 103.011 34.0759 103.011 36.9132C103.011 38.8385 101.973 41.2452 98.8059 42.0052L103.315 49.2759ZM120.628 31.5932H124.58V49.2759H121.034V38.1039L116.22 49.2759H113.662L108.874 38.1545V49.2759H105.302V31.5932H109.279L114.954 44.6905L120.628 31.5932Z" fill="black"/>
<rect x="126.885" y="46.0805" width="3.49425" height="3.49425" fill="#1B59F8" stroke="#1B59F8" stroke-width="0.436782"/>
<g clip-path="url(#clip0_30_388)">
<path fill-rule="evenodd" clip-rule="evenodd" d="M15.574 36.4816C16.4279 36.9917 17.3761 37.2468 18.4186 37.2468C19.4611 37.2468 20.4093 36.9917 21.2632 36.4816C22.1172 35.9715 22.7992 35.2894 23.3094 34.4355C23.8195 33.5704 24.0746 32.6167 24.0746 31.5742C24.0746 30.5317 23.8195 29.5835 23.3094 28.7296C22.7992 27.8756 22.1172 27.1936 21.2632 26.6834C20.4093 26.1733 19.4611 25.9182 18.4186 25.9182C17.3761 25.9182 16.4279 26.1733 15.574 26.6834C14.72 27.1936 14.038 27.8756 13.5279 28.7296C13.0177 29.5835 12.7626 30.5317 12.7626 31.5742C12.7626 32.6167 13.0177 33.5704 13.5279 34.4355C14.038 35.2894 14.72 35.9715 15.574 36.4816ZM40.7265 36.4816C41.5915 36.9917 42.5452 37.2468 43.5877 37.2468C44.6191 37.2468 45.5618 36.9917 46.4157 36.4816C47.2807 35.9715 47.9684 35.2894 48.4785 34.4355C48.9886 33.5704 49.2437 32.6167 49.2437 31.5742C49.2437 30.5317 48.9886 29.5835 48.4785 28.7296C47.9684 27.8756 47.2807 27.1936 46.4157 26.6834C45.5618 26.1733 44.6191 25.9182 43.5877 25.9182C42.5452 25.9182 41.5915 26.1733 40.7265 26.6834C39.8725 27.1936 39.1905 27.8756 38.6803 28.7296C38.1813 29.5835 37.9318 30.5317 37.9318 31.5742C37.9318 32.6167 38.1813 33.5704 38.6803 34.4355C39.1905 35.2894 39.8725 35.9715 40.7265 36.4816ZM28.1669 54.9966C29.0208 55.5068 29.969 55.7618 31.0115 55.7618C32.054 55.7618 33.0022 55.5068 33.8561 54.9966C34.7101 54.4975 35.3921 53.8155 35.9023 52.9505C36.4124 52.0965 36.6675 51.1483 36.6675 50.1058C36.6675 49.0634 36.4124 48.1152 35.9023 47.2612C35.3921 46.4073 34.7101 45.7252 33.8561 45.2151C33.0022 44.7049 32.054 44.4499 31.0115 44.4499C29.969 44.4499 29.0208 44.7049 28.1669 45.2151C27.3129 45.7252 26.6309 46.4073 26.1207 47.2612C25.6106 48.1152 25.3555 49.0634 25.3555 50.1058C25.3555 51.1483 25.6106 52.0965 26.1207 52.9505C26.6309 53.8155 27.3129 54.4975 28.1669 54.9966Z" fill="#1B59F8"/>
</g>
<g clip-path="url(#clip1_30_388)">
<path fill-rule="evenodd" clip-rule="evenodd" d="M25.788 32.6222C26.0764 32.8995 26.4146 33.0381 26.8028 33.0381C27.2131 33.0381 27.5569 32.8995 27.8342 32.6222C28.1114 32.3449 28.25 32.0067 28.25 31.6075C28.25 31.2082 28.1114 30.87 27.8342 30.5927C27.5569 30.3044 27.2131 30.1602 26.8028 30.1602C26.4146 30.1602 26.0764 30.3044 25.788 30.5927C25.5107 30.87 25.3722 31.2082 25.3722 31.6075C25.3722 32.0067 25.5107 32.3449 25.788 32.6222ZM29.9801 32.6222C30.2684 32.8995 30.6122 33.0381 31.0115 33.0381C31.3997 33.0381 31.7379 32.8995 32.0262 32.6222C32.3146 32.3449 32.4588 32.0067 32.4588 31.6075C32.4588 31.2082 32.3146 30.87 32.0262 30.5927C31.7379 30.3044 31.3997 30.1602 31.0115 30.1602C30.6122 30.1602 30.2684 30.3044 29.9801 30.5927C29.7028 30.87 29.5642 31.2082 29.5642 31.6075C29.5642 32.0067 29.7028 32.3449 29.9801 32.6222ZM34.1722 32.6222C34.4605 32.8995 34.7988 33.0381 35.1869 33.0381C35.5862 33.0381 35.9244 32.8995 36.2017 32.6222C36.49 32.3449 36.6342 32.0067 36.6342 31.6075C36.6342 31.2082 36.49 30.87 36.2017 30.5927C35.9244 30.3044 35.5862 30.1602 35.1869 30.1602C34.7988 30.1602 34.4605 30.3044 34.1722 30.5927C33.8839 30.87 33.7397 31.2082 33.7397 31.6075C33.7397 32.0067 33.8839 32.3449 34.1722 32.6222ZM38.2478 40.2578C38.5361 40.5461 38.8744 40.6903 39.2626 40.6903C39.6618 40.6903 40.0001 40.5461 40.2773 40.2578C40.5657 39.9694 40.7098 39.6312 40.7098 39.243C40.7098 38.8438 40.5657 38.5055 40.2773 38.2283C40.0001 37.9399 39.6618 37.7958 39.2626 37.7958C38.8744 37.7958 38.5361 37.9399 38.2478 38.2283C37.9595 38.5055 37.8153 38.8438 37.8153 39.243C37.8153 39.6312 37.9595 39.9694 38.2478 40.2578ZM35.1037 43.7179C35.3921 44.0063 35.7303 44.1505 36.1185 44.1505C36.5177 44.1505 36.856 44.0063 37.1332 43.7179C37.4216 43.4296 37.5658 43.0913 37.5658 42.7032C37.5658 42.3039 37.4216 41.9657 37.1332 41.6884C36.856 41.4001 36.5177 41.2559 36.1185 41.2559C35.7303 41.2559 35.3921 41.4001 35.1037 41.6884C34.8265 41.9657 34.6879 42.3039 34.6879 42.7032C34.6879 43.0913 34.8265 43.4296 35.1037 43.7179ZM24.8398 43.7179C25.1282 44.0063 25.472 44.1505 25.8712 44.1505C26.2704 44.1505 26.6087 44.0063 26.886 43.7179C27.1743 43.4296 27.3185 43.0913 27.3185 42.7032C27.3185 42.3039 27.1743 41.9657 26.886 41.6884C26.6087 41.4001 26.2704 41.2559 25.8712 41.2559C25.472 41.2559 25.1282 41.4001 24.8398 41.6884C24.5626 41.9657 24.4239 42.3039 24.4239 42.7032C24.4239 43.0913 24.5626 43.4296 24.8398 43.7179ZM21.7124 40.2578C22.0007 40.5461 22.339 40.6903 22.7271 40.6903C23.1264 40.6903 23.4646 40.5461 23.7419 40.2578C24.0302 39.9694 24.1744 39.6312 24.1744 39.243C24.1744 38.8438 24.0302 38.5055 23.7419 38.2283C23.4646 37.9399 23.1264 37.7958 22.7271 37.7958C22.339 37.7958 22.0007 37.9399 21.7124 38.2283C21.4351 38.5055 21.2965 38.8438 21.2965 39.243C21.2965 39.6312 21.4351 39.9694 21.7124 40.2578Z" fill="black" fill-opacity="0.7"/>
</g>
<defs>
<clipPath id="clip0_30_388">
<rect width="36.6897" height="30.1379" fill="white" transform="translate(12.6667 25.7701)"/>
</clipPath>
<clipPath id="clip1_30_388">
<rect width="36.6897" height="30.1379" fill="white" transform="translate(12.6667 25.7701)"/>
</clipPath>
</defs>
</svg>
